M48
; DRILL file {KiCad (5.1.7)-1} date 10/30/20 16:09:22
; FORMAT={-:-/ absolute / inch / decimal}
; #@! TF.CreationDate,2020-10-30T16:09:22+01:00
; #@! TF.GenerationSoftware,Kicad,Pcbnew,(5.1.7)-1
; #@! TF.FileFunction,Plated,1,2,PTH
FMAT,2
INCH
T1C0.0315
T2C0.0354
T3C0.0394
T4C0.0433
T5C0.0472
%
G90
G05
T1
X5.4Y-3.9
X5.7Y-3.9
X5.05Y-3.9516
X5.05Y-4.05
T2
X5.9Y-4.3
X5.9Y-4.4
X5.9Y-3.8
X5.9Y-3.9
X5.9Y-4.0
T3
X5.1Y-4.55
X5.2Y-4.55
X5.3Y-4.55
X5.4Y-4.55
X5.5Y-4.55
X5.6Y-4.55
X5.7Y-4.55
X5.8Y-4.55
X5.1Y-3.7
X5.2Y-3.7
X5.3Y-3.7
X5.4Y-3.7
X5.5Y-3.7
X5.6Y-3.7
X5.7Y-3.7
X5.8Y-3.7
T4
X5.3573Y-4.2598
X5.3573Y-4.35
X5.3573Y-4.4402
T5
X5.3Y-4.15
X5.9Y-4.15
T0
M30
