%TF.GenerationSoftware,KiCad,Pcbnew,(5.1.7)-1*%
%TF.CreationDate,2020-10-30T16:09:29+01:00*%
%TF.ProjectId,RcOid,52634f69-642e-46b6-9963-61645f706362,rev?*%
%TF.SameCoordinates,Original*%
%TF.FileFunction,Copper,L1,Top*%
%TF.FilePolarity,Positive*%
%FSLAX46Y46*%
G04 Gerber Fmt 4.6, Leading zero omitted, Abs format (unit mm)*
G04 Created by KiCad (PCBNEW (5.1.7)-1) date 2020-10-30 16:09:29*
%MOMM*%
%LPD*%
G01*
G04 APERTURE LIST*
%TA.AperFunction,SMDPad,CuDef*%
%ADD10R,6.200000X5.700000*%
%TD*%
%TA.AperFunction,ComponentPad*%
%ADD11R,1.800000X1.717500*%
%TD*%
%TA.AperFunction,ComponentPad*%
%ADD12O,1.800000X1.717500*%
%TD*%
%TA.AperFunction,ComponentPad*%
%ADD13C,1.600000*%
%TD*%
%TA.AperFunction,ComponentPad*%
%ADD14R,1.600000X1.600000*%
%TD*%
%TA.AperFunction,ComponentPad*%
%ADD15R,1.800000X1.800000*%
%TD*%
%TA.AperFunction,ComponentPad*%
%ADD16C,1.800000*%
%TD*%
%TA.AperFunction,ComponentPad*%
%ADD17R,1.700000X1.700000*%
%TD*%
%TA.AperFunction,ComponentPad*%
%ADD18O,1.700000X1.700000*%
%TD*%
%TA.AperFunction,ComponentPad*%
%ADD19C,2.400000*%
%TD*%
%TA.AperFunction,ComponentPad*%
%ADD20O,2.400000X2.400000*%
%TD*%
%TA.AperFunction,ViaPad*%
%ADD21C,1.600000*%
%TD*%
%TA.AperFunction,Conductor*%
%ADD22C,0.800000*%
%TD*%
G04 APERTURE END LIST*
D10*
%TO.P,Q1,4*%
%TO.N,N/C*%
X143510000Y-110490000D03*
D11*
%TO.P,Q1,1*%
%TO.N,Net-(J2-Pad2)*%
X136076667Y-108200000D03*
D12*
%TO.P,Q1,2*%
%TO.N,GND*%
X136076667Y-110490000D03*
%TO.P,Q1,3*%
%TO.N,Net-(D1-Pad1)*%
X136076667Y-112780000D03*
%TD*%
D13*
%TO.P,C1,2*%
%TO.N,GND*%
X128270000Y-100370000D03*
D14*
%TO.P,C1,1*%
%TO.N,+3V3*%
X128270000Y-102870000D03*
%TD*%
D15*
%TO.P,D1,1*%
%TO.N,Net-(D1-Pad1)*%
X149860000Y-111760000D03*
D16*
%TO.P,D1,2*%
%TO.N,Net-(D1-Pad2)*%
X149860000Y-109220000D03*
%TD*%
D17*
%TO.P,J1,1*%
%TO.N,Net-(J1-Pad1)*%
X129540000Y-93980000D03*
D18*
%TO.P,J1,2*%
%TO.N,GND*%
X132080000Y-93980000D03*
%TO.P,J1,3*%
%TO.N,Net-(J1-Pad3)*%
X134620000Y-93980000D03*
%TO.P,J1,4*%
%TO.N,Net-(J1-Pad4)*%
X137160000Y-93980000D03*
%TO.P,J1,5*%
%TO.N,Net-(J1-Pad5)*%
X139700000Y-93980000D03*
%TO.P,J1,6*%
%TO.N,Net-(J1-Pad6)*%
X142240000Y-93980000D03*
%TO.P,J1,7*%
%TO.N,Net-(J1-Pad7)*%
X144780000Y-93980000D03*
%TO.P,J1,8*%
%TO.N,Net-(J1-Pad8)*%
X147320000Y-93980000D03*
%TD*%
%TO.P,J2,8*%
%TO.N,Net-(J2-Pad8)*%
X147320000Y-115570000D03*
%TO.P,J2,7*%
%TO.N,Net-(J2-Pad7)*%
X144780000Y-115570000D03*
%TO.P,J2,6*%
%TO.N,Net-(J2-Pad6)*%
X142240000Y-115570000D03*
%TO.P,J2,5*%
%TO.N,Net-(J2-Pad5)*%
X139700000Y-115570000D03*
%TO.P,J2,4*%
%TO.N,Net-(J2-Pad4)*%
X137160000Y-115570000D03*
%TO.P,J2,3*%
%TO.N,Net-(J2-Pad3)*%
X134620000Y-115570000D03*
%TO.P,J2,2*%
%TO.N,Net-(J2-Pad2)*%
X132080000Y-115570000D03*
D17*
%TO.P,J2,1*%
%TO.N,+3V3*%
X129540000Y-115570000D03*
%TD*%
%TO.P,U1,1*%
%TO.N,Net-(J1-Pad3)*%
%TA.AperFunction,ComponentPad*%
G36*
G01*
X150509800Y-102500000D02*
X149210200Y-102500000D01*
G75*
G02*
X148960000Y-102249800I0J250200D01*
G01*
X148960000Y-100950200D01*
G75*
G02*
X149210200Y-100700000I250200J0D01*
G01*
X150509800Y-100700000D01*
G75*
G02*
X150760000Y-100950200I0J-250200D01*
G01*
X150760000Y-102249800D01*
G75*
G02*
X150509800Y-102500000I-250200J0D01*
G01*
G37*
%TD.AperFunction*%
D16*
%TO.P,U1,2*%
%TO.N,GND*%
X149860000Y-99060000D03*
%TO.P,U1,3*%
%TO.N,+3V3*%
X149860000Y-96520000D03*
%TD*%
D19*
%TO.P,R1,1*%
%TO.N,+3V3*%
X134620000Y-105410000D03*
D20*
%TO.P,R1,2*%
%TO.N,Net-(D1-Pad2)*%
X149860000Y-105410000D03*
%TD*%
D21*
%TO.N,GND*%
X137160000Y-99060000D03*
X144780000Y-99060000D03*
%TD*%
D22*
%TO.N,GND*%
X137160000Y-99060000D02*
X144780000Y-99060000D01*
%TD*%
M02*
