%TF.GenerationSoftware,KiCad,Pcbnew,(5.1.7)-1*%
%TF.CreationDate,2020-12-01T16:28:04+01:00*%
%TF.ProjectId,RcOid,52634f69-642e-46b6-9963-61645f706362,1*%
%TF.SameCoordinates,Original*%
%TF.FileFunction,Copper,L2,Bot*%
%TF.FilePolarity,Positive*%
%FSLAX46Y46*%
G04 Gerber Fmt 4.6, Leading zero omitted, Abs format (unit mm)*
G04 Created by KiCad (PCBNEW (5.1.7)-1) date 2020-12-01 16:28:04*
%MOMM*%
%LPD*%
G01*
G04 APERTURE LIST*
%TA.AperFunction,ComponentPad*%
%ADD10O,1.800000X1.800000*%
%TD*%
%TA.AperFunction,ComponentPad*%
%ADD11R,1.800000X1.800000*%
%TD*%
%TA.AperFunction,SMDPad,CuDef*%
%ADD12R,6.200000X5.700000*%
%TD*%
%TA.AperFunction,ComponentPad*%
%ADD13C,1.800000*%
%TD*%
%TA.AperFunction,ComponentPad*%
%ADD14R,1.600000X1.600000*%
%TD*%
%TA.AperFunction,ComponentPad*%
%ADD15C,1.600000*%
%TD*%
%TA.AperFunction,ComponentPad*%
%ADD16R,1.700000X1.700000*%
%TD*%
%TA.AperFunction,ComponentPad*%
%ADD17O,1.700000X1.700000*%
%TD*%
%TA.AperFunction,ComponentPad*%
%ADD18C,2.400000*%
%TD*%
%TA.AperFunction,ComponentPad*%
%ADD19O,2.400000X2.400000*%
%TD*%
%TA.AperFunction,ViaPad*%
%ADD20C,1.600000*%
%TD*%
%TA.AperFunction,Conductor*%
%ADD21C,0.800000*%
%TD*%
%TA.AperFunction,Conductor*%
%ADD22C,0.254000*%
%TD*%
%TA.AperFunction,Conductor*%
%ADD23C,0.100000*%
%TD*%
G04 APERTURE END LIST*
D10*
%TO.P,Q1,2*%
%TO.N,Net-(D1-Pad1)*%
X134620000Y-99560000D03*
D11*
%TO.P,Q1,1*%
%TO.N,Net-(J1-Pad4)*%
X134620000Y-104140000D03*
D12*
%TO.P,Q1,3*%
%TO.N,GND*%
X142053333Y-101850000D03*
%TD*%
D13*
%TO.P,D2,2*%
%TO.N,Net-(D2-Pad2)*%
X139700000Y-109220000D03*
D11*
%TO.P,D2,1*%
%TO.N,Net-(D1-Pad2)*%
X139700000Y-106680000D03*
%TD*%
D13*
%TO.P,D1,2*%
%TO.N,Net-(D1-Pad2)*%
X127000000Y-106680000D03*
D11*
%TO.P,D1,1*%
%TO.N,Net-(D1-Pad1)*%
X127000000Y-109220000D03*
%TD*%
D14*
%TO.P,C1,1*%
%TO.N,+3V3*%
X148590000Y-114300000D03*
D15*
%TO.P,C1,2*%
%TO.N,GND*%
X151090000Y-114300000D03*
%TD*%
D16*
%TO.P,J1,1*%
%TO.N,Net-(J1-Pad1)*%
X148590000Y-93980000D03*
D17*
%TO.P,J1,2*%
%TO.N,GND*%
X146050000Y-93980000D03*
%TO.P,J1,3*%
%TO.N,Net-(J1-Pad3)*%
X143510000Y-93980000D03*
%TO.P,J1,4*%
%TO.N,Net-(J1-Pad4)*%
X140970000Y-93980000D03*
%TO.P,J1,5*%
%TO.N,Net-(J1-Pad5)*%
X138430000Y-93980000D03*
%TO.P,J1,6*%
%TO.N,Net-(J1-Pad6)*%
X135890000Y-93980000D03*
%TO.P,J1,7*%
%TO.N,Net-(J1-Pad7)*%
X133350000Y-93980000D03*
%TO.P,J1,8*%
%TO.N,Net-(J1-Pad8)*%
X130810000Y-93980000D03*
%TD*%
%TO.P,J2,8*%
%TO.N,Net-(J2-Pad8)*%
X130810000Y-116840000D03*
%TO.P,J2,7*%
%TO.N,Net-(J2-Pad7)*%
X133350000Y-116840000D03*
%TO.P,J2,6*%
%TO.N,Net-(J2-Pad6)*%
X135890000Y-116840000D03*
%TO.P,J2,5*%
%TO.N,Net-(J2-Pad5)*%
X138430000Y-116840000D03*
%TO.P,J2,4*%
%TO.N,Net-(J2-Pad4)*%
X140970000Y-116840000D03*
%TO.P,J2,3*%
%TO.N,Net-(J2-Pad3)*%
X143510000Y-116840000D03*
%TO.P,J2,2*%
%TO.N,Net-(J2-Pad2)*%
X146050000Y-116840000D03*
D16*
%TO.P,J2,1*%
%TO.N,+3V3*%
X148590000Y-116840000D03*
%TD*%
D18*
%TO.P,R1,1*%
%TO.N,+3V3*%
X142240000Y-113030000D03*
D19*
%TO.P,R1,2*%
%TO.N,Net-(D2-Pad2)*%
X127000000Y-113030000D03*
%TD*%
%TO.P,U1,1*%
%TO.N,Net-(J1-Pad3)*%
%TA.AperFunction,ComponentPad*%
G36*
G01*
X125109800Y-102500000D02*
X123810200Y-102500000D01*
G75*
G02*
X123560000Y-102249800I0J250200D01*
G01*
X123560000Y-100950200D01*
G75*
G02*
X123810200Y-100700000I250200J0D01*
G01*
X125109800Y-100700000D01*
G75*
G02*
X125360000Y-100950200I0J-250200D01*
G01*
X125360000Y-102249800D01*
G75*
G02*
X125109800Y-102500000I-250200J0D01*
G01*
G37*
%TD.AperFunction*%
D13*
%TO.P,U1,2*%
%TO.N,GND*%
X124460000Y-99060000D03*
%TO.P,U1,3*%
%TO.N,+3V3*%
X124460000Y-96520000D03*
%TD*%
D20*
%TO.N,GND*%
X128270000Y-102870000D03*
%TO.N,Net-(J1-Pad3)*%
X128270000Y-95250000D03*
%TD*%
D21*
%TO.N,GND*%
X148019999Y-111229999D02*
X151090000Y-114300000D01*
X133119990Y-105478742D02*
X138871247Y-111229999D01*
X138871247Y-111229999D02*
X148019999Y-111229999D01*
X133119990Y-105478742D02*
X130878742Y-105478742D01*
X130878742Y-105478742D02*
X128270000Y-102870000D01*
X142053333Y-105263333D02*
X151090000Y-114300000D01*
X142053333Y-101850000D02*
X142053333Y-105263333D01*
%TO.N,Net-(J1-Pad3)*%
X128270000Y-97790000D02*
X124460000Y-101600000D01*
X128270000Y-95250000D02*
X128270000Y-97790000D01*
%TO.N,Net-(J1-Pad4)*%
X136120010Y-98829990D02*
X140970000Y-93980000D01*
X136120010Y-102639990D02*
X136120010Y-98829990D01*
X134620000Y-104140000D02*
X136120010Y-102639990D01*
%TD*%
D22*
%TO.N,GND*%
X152455000Y-113855392D02*
X152393603Y-113683708D01*
X152326671Y-113558486D01*
X152082702Y-113486903D01*
X151269605Y-114300000D01*
X152082702Y-115113097D01*
X152326671Y-115041514D01*
X152447571Y-114786004D01*
X152455000Y-114756366D01*
X152455000Y-117375000D01*
X150078072Y-117375000D01*
X150078072Y-115990000D01*
X150065812Y-115865518D01*
X150029502Y-115745820D01*
X149970537Y-115635506D01*
X149891185Y-115538815D01*
X149867374Y-115519274D01*
X149920537Y-115454494D01*
X149979502Y-115344180D01*
X149995117Y-115292702D01*
X150276903Y-115292702D01*
X150348486Y-115536671D01*
X150603996Y-115657571D01*
X150878184Y-115726300D01*
X151160512Y-115740217D01*
X151440130Y-115698787D01*
X151706292Y-115603603D01*
X151831514Y-115536671D01*
X151903097Y-115292702D01*
X151090000Y-114479605D01*
X150276903Y-115292702D01*
X149995117Y-115292702D01*
X150015812Y-115224482D01*
X150028072Y-115100000D01*
X150028072Y-115092785D01*
X150097298Y-115113097D01*
X150910395Y-114300000D01*
X150097298Y-113486903D01*
X150028072Y-113507215D01*
X150028072Y-113500000D01*
X150015812Y-113375518D01*
X149995118Y-113307298D01*
X150276903Y-113307298D01*
X151090000Y-114120395D01*
X151903097Y-113307298D01*
X151831514Y-113063329D01*
X151576004Y-112942429D01*
X151301816Y-112873700D01*
X151019488Y-112859783D01*
X150739870Y-112901213D01*
X150473708Y-112996397D01*
X150348486Y-113063329D01*
X150276903Y-113307298D01*
X149995118Y-113307298D01*
X149979502Y-113255820D01*
X149920537Y-113145506D01*
X149841185Y-113048815D01*
X149744494Y-112969463D01*
X149634180Y-112910498D01*
X149514482Y-112874188D01*
X149390000Y-112861928D01*
X147790000Y-112861928D01*
X147665518Y-112874188D01*
X147545820Y-112910498D01*
X147435506Y-112969463D01*
X147338815Y-113048815D01*
X147259463Y-113145506D01*
X147200498Y-113255820D01*
X147164188Y-113375518D01*
X147151928Y-113500000D01*
X147151928Y-115100000D01*
X147164188Y-115224482D01*
X147200498Y-115344180D01*
X147259463Y-115454494D01*
X147312626Y-115519274D01*
X147288815Y-115538815D01*
X147209463Y-115635506D01*
X147150498Y-115745820D01*
X147128487Y-115818380D01*
X146996632Y-115686525D01*
X146753411Y-115524010D01*
X146483158Y-115412068D01*
X146196260Y-115355000D01*
X145903740Y-115355000D01*
X145616842Y-115412068D01*
X145346589Y-115524010D01*
X145103368Y-115686525D01*
X144896525Y-115893368D01*
X144780000Y-116067760D01*
X144663475Y-115893368D01*
X144456632Y-115686525D01*
X144213411Y-115524010D01*
X143943158Y-115412068D01*
X143656260Y-115355000D01*
X143363740Y-115355000D01*
X143076842Y-115412068D01*
X142806589Y-115524010D01*
X142563368Y-115686525D01*
X142356525Y-115893368D01*
X142240000Y-116067760D01*
X142123475Y-115893368D01*
X141916632Y-115686525D01*
X141673411Y-115524010D01*
X141403158Y-115412068D01*
X141116260Y-115355000D01*
X140823740Y-115355000D01*
X140536842Y-115412068D01*
X140266589Y-115524010D01*
X140023368Y-115686525D01*
X139816525Y-115893368D01*
X139700000Y-116067760D01*
X139583475Y-115893368D01*
X139376632Y-115686525D01*
X139133411Y-115524010D01*
X138863158Y-115412068D01*
X138576260Y-115355000D01*
X138283740Y-115355000D01*
X137996842Y-115412068D01*
X137726589Y-115524010D01*
X137483368Y-115686525D01*
X137276525Y-115893368D01*
X137160000Y-116067760D01*
X137043475Y-115893368D01*
X136836632Y-115686525D01*
X136593411Y-115524010D01*
X136323158Y-115412068D01*
X136036260Y-115355000D01*
X135743740Y-115355000D01*
X135456842Y-115412068D01*
X135186589Y-115524010D01*
X134943368Y-115686525D01*
X134736525Y-115893368D01*
X134620000Y-116067760D01*
X134503475Y-115893368D01*
X134296632Y-115686525D01*
X134053411Y-115524010D01*
X133783158Y-115412068D01*
X133496260Y-115355000D01*
X133203740Y-115355000D01*
X132916842Y-115412068D01*
X132646589Y-115524010D01*
X132403368Y-115686525D01*
X132196525Y-115893368D01*
X132080000Y-116067760D01*
X131963475Y-115893368D01*
X131756632Y-115686525D01*
X131513411Y-115524010D01*
X131243158Y-115412068D01*
X130956260Y-115355000D01*
X130663740Y-115355000D01*
X130376842Y-115412068D01*
X130106589Y-115524010D01*
X129863368Y-115686525D01*
X129656525Y-115893368D01*
X129494010Y-116136589D01*
X129382068Y-116406842D01*
X129325000Y-116693740D01*
X129325000Y-116986260D01*
X129382068Y-117273158D01*
X129424252Y-117375000D01*
X123925000Y-117375000D01*
X123925000Y-112849268D01*
X125165000Y-112849268D01*
X125165000Y-113210732D01*
X125235518Y-113565250D01*
X125373844Y-113899199D01*
X125574662Y-114199744D01*
X125830256Y-114455338D01*
X126130801Y-114656156D01*
X126464750Y-114794482D01*
X126819268Y-114865000D01*
X127180732Y-114865000D01*
X127535250Y-114794482D01*
X127869199Y-114656156D01*
X128169744Y-114455338D01*
X128425338Y-114199744D01*
X128626156Y-113899199D01*
X128764482Y-113565250D01*
X128835000Y-113210732D01*
X128835000Y-112849268D01*
X140405000Y-112849268D01*
X140405000Y-113210732D01*
X140475518Y-113565250D01*
X140613844Y-113899199D01*
X140814662Y-114199744D01*
X141070256Y-114455338D01*
X141370801Y-114656156D01*
X141704750Y-114794482D01*
X142059268Y-114865000D01*
X142420732Y-114865000D01*
X142775250Y-114794482D01*
X143109199Y-114656156D01*
X143409744Y-114455338D01*
X143665338Y-114199744D01*
X143866156Y-113899199D01*
X144004482Y-113565250D01*
X144075000Y-113210732D01*
X144075000Y-112849268D01*
X144004482Y-112494750D01*
X143866156Y-112160801D01*
X143665338Y-111860256D01*
X143409744Y-111604662D01*
X143109199Y-111403844D01*
X142775250Y-111265518D01*
X142420732Y-111195000D01*
X142059268Y-111195000D01*
X141704750Y-111265518D01*
X141370801Y-111403844D01*
X141070256Y-111604662D01*
X140814662Y-111860256D01*
X140613844Y-112160801D01*
X140475518Y-112494750D01*
X140405000Y-112849268D01*
X128835000Y-112849268D01*
X128764482Y-112494750D01*
X128626156Y-112160801D01*
X128425338Y-111860256D01*
X128169744Y-111604662D01*
X127869199Y-111403844D01*
X127535250Y-111265518D01*
X127180732Y-111195000D01*
X126819268Y-111195000D01*
X126464750Y-111265518D01*
X126130801Y-111403844D01*
X125830256Y-111604662D01*
X125574662Y-111860256D01*
X125373844Y-112160801D01*
X125235518Y-112494750D01*
X125165000Y-112849268D01*
X123925000Y-112849268D01*
X123925000Y-108320000D01*
X125461928Y-108320000D01*
X125461928Y-110120000D01*
X125474188Y-110244482D01*
X125510498Y-110364180D01*
X125569463Y-110474494D01*
X125648815Y-110571185D01*
X125745506Y-110650537D01*
X125855820Y-110709502D01*
X125975518Y-110745812D01*
X126100000Y-110758072D01*
X127900000Y-110758072D01*
X128024482Y-110745812D01*
X128144180Y-110709502D01*
X128254494Y-110650537D01*
X128351185Y-110571185D01*
X128430537Y-110474494D01*
X128489502Y-110364180D01*
X128525812Y-110244482D01*
X128538072Y-110120000D01*
X128538072Y-108320000D01*
X128525812Y-108195518D01*
X128489502Y-108075820D01*
X128430537Y-107965506D01*
X128351185Y-107868815D01*
X128254494Y-107789463D01*
X128144180Y-107730498D01*
X128125873Y-107724944D01*
X128192312Y-107658505D01*
X128360299Y-107407095D01*
X128476011Y-107127743D01*
X128535000Y-106831184D01*
X128535000Y-106528816D01*
X128476011Y-106232257D01*
X128360299Y-105952905D01*
X128244768Y-105780000D01*
X138161928Y-105780000D01*
X138161928Y-107580000D01*
X138174188Y-107704482D01*
X138210498Y-107824180D01*
X138269463Y-107934494D01*
X138348815Y-108031185D01*
X138445506Y-108110537D01*
X138555820Y-108169502D01*
X138574127Y-108175056D01*
X138507688Y-108241495D01*
X138339701Y-108492905D01*
X138223989Y-108772257D01*
X138165000Y-109068816D01*
X138165000Y-109371184D01*
X138223989Y-109667743D01*
X138339701Y-109947095D01*
X138507688Y-110198505D01*
X138721495Y-110412312D01*
X138972905Y-110580299D01*
X139252257Y-110696011D01*
X139548816Y-110755000D01*
X139851184Y-110755000D01*
X140147743Y-110696011D01*
X140427095Y-110580299D01*
X140678505Y-110412312D01*
X140892312Y-110198505D01*
X141060299Y-109947095D01*
X141176011Y-109667743D01*
X141235000Y-109371184D01*
X141235000Y-109068816D01*
X141176011Y-108772257D01*
X141060299Y-108492905D01*
X140892312Y-108241495D01*
X140825873Y-108175056D01*
X140844180Y-108169502D01*
X140954494Y-108110537D01*
X141051185Y-108031185D01*
X141130537Y-107934494D01*
X141189502Y-107824180D01*
X141225812Y-107704482D01*
X141238072Y-107580000D01*
X141238072Y-105780000D01*
X141225812Y-105655518D01*
X141189502Y-105535820D01*
X141130537Y-105425506D01*
X141056898Y-105335776D01*
X141767583Y-105335000D01*
X141926333Y-105176250D01*
X141926333Y-101977000D01*
X142180333Y-101977000D01*
X142180333Y-105176250D01*
X142339083Y-105335000D01*
X145153333Y-105338072D01*
X145277815Y-105325812D01*
X145397513Y-105289502D01*
X145507827Y-105230537D01*
X145604518Y-105151185D01*
X145683870Y-105054494D01*
X145742835Y-104944180D01*
X145779145Y-104824482D01*
X145791405Y-104700000D01*
X145788333Y-102135750D01*
X145629583Y-101977000D01*
X142180333Y-101977000D01*
X141926333Y-101977000D01*
X138477083Y-101977000D01*
X138318333Y-102135750D01*
X138315261Y-104700000D01*
X138327521Y-104824482D01*
X138363831Y-104944180D01*
X138422796Y-105054494D01*
X138502148Y-105151185D01*
X138552327Y-105192365D01*
X138445506Y-105249463D01*
X138348815Y-105328815D01*
X138269463Y-105425506D01*
X138210498Y-105535820D01*
X138174188Y-105655518D01*
X138161928Y-105780000D01*
X128244768Y-105780000D01*
X128192312Y-105701495D01*
X127978505Y-105487688D01*
X127727095Y-105319701D01*
X127447743Y-105203989D01*
X127151184Y-105145000D01*
X126848816Y-105145000D01*
X126552257Y-105203989D01*
X126272905Y-105319701D01*
X126021495Y-105487688D01*
X125807688Y-105701495D01*
X125639701Y-105952905D01*
X125523989Y-106232257D01*
X125465000Y-106528816D01*
X125465000Y-106831184D01*
X125523989Y-107127743D01*
X125639701Y-107407095D01*
X125807688Y-107658505D01*
X125874127Y-107724944D01*
X125855820Y-107730498D01*
X125745506Y-107789463D01*
X125648815Y-107868815D01*
X125569463Y-107965506D01*
X125510498Y-108075820D01*
X125474188Y-108195518D01*
X125461928Y-108320000D01*
X123925000Y-108320000D01*
X123925000Y-103138072D01*
X125109800Y-103138072D01*
X125283093Y-103121004D01*
X125449727Y-103070456D01*
X125603297Y-102988371D01*
X125737903Y-102877903D01*
X125848371Y-102743297D01*
X125930456Y-102589727D01*
X125981004Y-102423093D01*
X125998072Y-102249800D01*
X125998072Y-101525638D01*
X128965908Y-98557803D01*
X129005396Y-98525396D01*
X129051299Y-98469463D01*
X129134734Y-98367798D01*
X129230840Y-98187994D01*
X129230841Y-98187993D01*
X129290024Y-97992895D01*
X129305000Y-97840838D01*
X129305000Y-97840835D01*
X129310007Y-97790000D01*
X129305000Y-97739165D01*
X129305000Y-96244396D01*
X129384637Y-96164759D01*
X129541680Y-95929727D01*
X129649853Y-95668574D01*
X129705000Y-95391335D01*
X129705000Y-95108665D01*
X129671837Y-94941944D01*
X129863368Y-95133475D01*
X130106589Y-95295990D01*
X130376842Y-95407932D01*
X130663740Y-95465000D01*
X130956260Y-95465000D01*
X131243158Y-95407932D01*
X131513411Y-95295990D01*
X131756632Y-95133475D01*
X131963475Y-94926632D01*
X132080000Y-94752240D01*
X132196525Y-94926632D01*
X132403368Y-95133475D01*
X132646589Y-95295990D01*
X132916842Y-95407932D01*
X133203740Y-95465000D01*
X133496260Y-95465000D01*
X133783158Y-95407932D01*
X134053411Y-95295990D01*
X134296632Y-95133475D01*
X134503475Y-94926632D01*
X134620000Y-94752240D01*
X134736525Y-94926632D01*
X134943368Y-95133475D01*
X135186589Y-95295990D01*
X135456842Y-95407932D01*
X135743740Y-95465000D01*
X136036260Y-95465000D01*
X136323158Y-95407932D01*
X136593411Y-95295990D01*
X136836632Y-95133475D01*
X137043475Y-94926632D01*
X137160000Y-94752240D01*
X137276525Y-94926632D01*
X137483368Y-95133475D01*
X137726589Y-95295990D01*
X137996842Y-95407932D01*
X138064833Y-95421456D01*
X135424102Y-98062187D01*
X135384615Y-98094594D01*
X135352208Y-98134082D01*
X135352207Y-98134083D01*
X135310721Y-98184634D01*
X135067743Y-98083989D01*
X134771184Y-98025000D01*
X134468816Y-98025000D01*
X134172257Y-98083989D01*
X133892905Y-98199701D01*
X133641495Y-98367688D01*
X133427688Y-98581495D01*
X133259701Y-98832905D01*
X133143989Y-99112257D01*
X133085000Y-99408816D01*
X133085000Y-99711184D01*
X133143989Y-100007743D01*
X133259701Y-100287095D01*
X133427688Y-100538505D01*
X133641495Y-100752312D01*
X133892905Y-100920299D01*
X134172257Y-101036011D01*
X134468816Y-101095000D01*
X134771184Y-101095000D01*
X135067743Y-101036011D01*
X135085010Y-101028859D01*
X135085010Y-102211279D01*
X134694361Y-102601928D01*
X133720000Y-102601928D01*
X133595518Y-102614188D01*
X133475820Y-102650498D01*
X133365506Y-102709463D01*
X133268815Y-102788815D01*
X133189463Y-102885506D01*
X133130498Y-102995820D01*
X133094188Y-103115518D01*
X133081928Y-103240000D01*
X133081928Y-105040000D01*
X133094188Y-105164482D01*
X133130498Y-105284180D01*
X133189463Y-105394494D01*
X133268815Y-105491185D01*
X133365506Y-105570537D01*
X133475820Y-105629502D01*
X133595518Y-105665812D01*
X133720000Y-105678072D01*
X135520000Y-105678072D01*
X135644482Y-105665812D01*
X135764180Y-105629502D01*
X135874494Y-105570537D01*
X135971185Y-105491185D01*
X136050537Y-105394494D01*
X136109502Y-105284180D01*
X136145812Y-105164482D01*
X136158072Y-105040000D01*
X136158072Y-104065639D01*
X136815918Y-103407793D01*
X136855406Y-103375386D01*
X136984744Y-103217787D01*
X137080851Y-103037983D01*
X137140034Y-102842885D01*
X137155010Y-102690828D01*
X137155010Y-102690819D01*
X137160016Y-102639991D01*
X137155010Y-102589163D01*
X137155010Y-99258700D01*
X137413710Y-99000000D01*
X138315261Y-99000000D01*
X138318333Y-101564250D01*
X138477083Y-101723000D01*
X141926333Y-101723000D01*
X141926333Y-98523750D01*
X142180333Y-98523750D01*
X142180333Y-101723000D01*
X145629583Y-101723000D01*
X145788333Y-101564250D01*
X145791405Y-99000000D01*
X145779145Y-98875518D01*
X145742835Y-98755820D01*
X145683870Y-98645506D01*
X145604518Y-98548815D01*
X145507827Y-98469463D01*
X145397513Y-98410498D01*
X145277815Y-98374188D01*
X145153333Y-98361928D01*
X142339083Y-98365000D01*
X142180333Y-98523750D01*
X141926333Y-98523750D01*
X141767583Y-98365000D01*
X138953333Y-98361928D01*
X138828851Y-98374188D01*
X138709153Y-98410498D01*
X138598839Y-98469463D01*
X138502148Y-98548815D01*
X138422796Y-98645506D01*
X138363831Y-98755820D01*
X138327521Y-98875518D01*
X138315261Y-99000000D01*
X137413710Y-99000000D01*
X140948711Y-95465000D01*
X141116260Y-95465000D01*
X141403158Y-95407932D01*
X141673411Y-95295990D01*
X141916632Y-95133475D01*
X142123475Y-94926632D01*
X142240000Y-94752240D01*
X142356525Y-94926632D01*
X142563368Y-95133475D01*
X142806589Y-95295990D01*
X143076842Y-95407932D01*
X143363740Y-95465000D01*
X143656260Y-95465000D01*
X143943158Y-95407932D01*
X144213411Y-95295990D01*
X144456632Y-95133475D01*
X144663475Y-94926632D01*
X144785195Y-94744466D01*
X144854822Y-94861355D01*
X145049731Y-95077588D01*
X145283080Y-95251641D01*
X145545901Y-95376825D01*
X145693110Y-95421476D01*
X145923000Y-95300155D01*
X145923000Y-94107000D01*
X145903000Y-94107000D01*
X145903000Y-93853000D01*
X145923000Y-93853000D01*
X145923000Y-93833000D01*
X146177000Y-93833000D01*
X146177000Y-93853000D01*
X146197000Y-93853000D01*
X146197000Y-94107000D01*
X146177000Y-94107000D01*
X146177000Y-95300155D01*
X146406890Y-95421476D01*
X146554099Y-95376825D01*
X146816920Y-95251641D01*
X147050269Y-95077588D01*
X147126034Y-94993534D01*
X147150498Y-95074180D01*
X147209463Y-95184494D01*
X147288815Y-95281185D01*
X147385506Y-95360537D01*
X147495820Y-95419502D01*
X147615518Y-95455812D01*
X147740000Y-95468072D01*
X149440000Y-95468072D01*
X149564482Y-95455812D01*
X149684180Y-95419502D01*
X149794494Y-95360537D01*
X149891185Y-95281185D01*
X149970537Y-95184494D01*
X150029502Y-95074180D01*
X150065812Y-94954482D01*
X150078072Y-94830000D01*
X150078072Y-93130000D01*
X150065812Y-93005518D01*
X150029502Y-92885820D01*
X150007683Y-92845001D01*
X152455001Y-92845001D01*
X152455000Y-113855392D01*
%TA.AperFunction,Conductor*%
D23*
G36*
X152455000Y-113855392D02*
G01*
X152393603Y-113683708D01*
X152326671Y-113558486D01*
X152082702Y-113486903D01*
X151269605Y-114300000D01*
X152082702Y-115113097D01*
X152326671Y-115041514D01*
X152447571Y-114786004D01*
X152455000Y-114756366D01*
X152455000Y-117375000D01*
X150078072Y-117375000D01*
X150078072Y-115990000D01*
X150065812Y-115865518D01*
X150029502Y-115745820D01*
X149970537Y-115635506D01*
X149891185Y-115538815D01*
X149867374Y-115519274D01*
X149920537Y-115454494D01*
X149979502Y-115344180D01*
X149995117Y-115292702D01*
X150276903Y-115292702D01*
X150348486Y-115536671D01*
X150603996Y-115657571D01*
X150878184Y-115726300D01*
X151160512Y-115740217D01*
X151440130Y-115698787D01*
X151706292Y-115603603D01*
X151831514Y-115536671D01*
X151903097Y-115292702D01*
X151090000Y-114479605D01*
X150276903Y-115292702D01*
X149995117Y-115292702D01*
X150015812Y-115224482D01*
X150028072Y-115100000D01*
X150028072Y-115092785D01*
X150097298Y-115113097D01*
X150910395Y-114300000D01*
X150097298Y-113486903D01*
X150028072Y-113507215D01*
X150028072Y-113500000D01*
X150015812Y-113375518D01*
X149995118Y-113307298D01*
X150276903Y-113307298D01*
X151090000Y-114120395D01*
X151903097Y-113307298D01*
X151831514Y-113063329D01*
X151576004Y-112942429D01*
X151301816Y-112873700D01*
X151019488Y-112859783D01*
X150739870Y-112901213D01*
X150473708Y-112996397D01*
X150348486Y-113063329D01*
X150276903Y-113307298D01*
X149995118Y-113307298D01*
X149979502Y-113255820D01*
X149920537Y-113145506D01*
X149841185Y-113048815D01*
X149744494Y-112969463D01*
X149634180Y-112910498D01*
X149514482Y-112874188D01*
X149390000Y-112861928D01*
X147790000Y-112861928D01*
X147665518Y-112874188D01*
X147545820Y-112910498D01*
X147435506Y-112969463D01*
X147338815Y-113048815D01*
X147259463Y-113145506D01*
X147200498Y-113255820D01*
X147164188Y-113375518D01*
X147151928Y-113500000D01*
X147151928Y-115100000D01*
X147164188Y-115224482D01*
X147200498Y-115344180D01*
X147259463Y-115454494D01*
X147312626Y-115519274D01*
X147288815Y-115538815D01*
X147209463Y-115635506D01*
X147150498Y-115745820D01*
X147128487Y-115818380D01*
X146996632Y-115686525D01*
X146753411Y-115524010D01*
X146483158Y-115412068D01*
X146196260Y-115355000D01*
X145903740Y-115355000D01*
X145616842Y-115412068D01*
X145346589Y-115524010D01*
X145103368Y-115686525D01*
X144896525Y-115893368D01*
X144780000Y-116067760D01*
X144663475Y-115893368D01*
X144456632Y-115686525D01*
X144213411Y-115524010D01*
X143943158Y-115412068D01*
X143656260Y-115355000D01*
X143363740Y-115355000D01*
X143076842Y-115412068D01*
X142806589Y-115524010D01*
X142563368Y-115686525D01*
X142356525Y-115893368D01*
X142240000Y-116067760D01*
X142123475Y-115893368D01*
X141916632Y-115686525D01*
X141673411Y-115524010D01*
X141403158Y-115412068D01*
X141116260Y-115355000D01*
X140823740Y-115355000D01*
X140536842Y-115412068D01*
X140266589Y-115524010D01*
X140023368Y-115686525D01*
X139816525Y-115893368D01*
X139700000Y-116067760D01*
X139583475Y-115893368D01*
X139376632Y-115686525D01*
X139133411Y-115524010D01*
X138863158Y-115412068D01*
X138576260Y-115355000D01*
X138283740Y-115355000D01*
X137996842Y-115412068D01*
X137726589Y-115524010D01*
X137483368Y-115686525D01*
X137276525Y-115893368D01*
X137160000Y-116067760D01*
X137043475Y-115893368D01*
X136836632Y-115686525D01*
X136593411Y-115524010D01*
X136323158Y-115412068D01*
X136036260Y-115355000D01*
X135743740Y-115355000D01*
X135456842Y-115412068D01*
X135186589Y-115524010D01*
X134943368Y-115686525D01*
X134736525Y-115893368D01*
X134620000Y-116067760D01*
X134503475Y-115893368D01*
X134296632Y-115686525D01*
X134053411Y-115524010D01*
X133783158Y-115412068D01*
X133496260Y-115355000D01*
X133203740Y-115355000D01*
X132916842Y-115412068D01*
X132646589Y-115524010D01*
X132403368Y-115686525D01*
X132196525Y-115893368D01*
X132080000Y-116067760D01*
X131963475Y-115893368D01*
X131756632Y-115686525D01*
X131513411Y-115524010D01*
X131243158Y-115412068D01*
X130956260Y-115355000D01*
X130663740Y-115355000D01*
X130376842Y-115412068D01*
X130106589Y-115524010D01*
X129863368Y-115686525D01*
X129656525Y-115893368D01*
X129494010Y-116136589D01*
X129382068Y-116406842D01*
X129325000Y-116693740D01*
X129325000Y-116986260D01*
X129382068Y-117273158D01*
X129424252Y-117375000D01*
X123925000Y-117375000D01*
X123925000Y-112849268D01*
X125165000Y-112849268D01*
X125165000Y-113210732D01*
X125235518Y-113565250D01*
X125373844Y-113899199D01*
X125574662Y-114199744D01*
X125830256Y-114455338D01*
X126130801Y-114656156D01*
X126464750Y-114794482D01*
X126819268Y-114865000D01*
X127180732Y-114865000D01*
X127535250Y-114794482D01*
X127869199Y-114656156D01*
X128169744Y-114455338D01*
X128425338Y-114199744D01*
X128626156Y-113899199D01*
X128764482Y-113565250D01*
X128835000Y-113210732D01*
X128835000Y-112849268D01*
X140405000Y-112849268D01*
X140405000Y-113210732D01*
X140475518Y-113565250D01*
X140613844Y-113899199D01*
X140814662Y-114199744D01*
X141070256Y-114455338D01*
X141370801Y-114656156D01*
X141704750Y-114794482D01*
X142059268Y-114865000D01*
X142420732Y-114865000D01*
X142775250Y-114794482D01*
X143109199Y-114656156D01*
X143409744Y-114455338D01*
X143665338Y-114199744D01*
X143866156Y-113899199D01*
X144004482Y-113565250D01*
X144075000Y-113210732D01*
X144075000Y-112849268D01*
X144004482Y-112494750D01*
X143866156Y-112160801D01*
X143665338Y-111860256D01*
X143409744Y-111604662D01*
X143109199Y-111403844D01*
X142775250Y-111265518D01*
X142420732Y-111195000D01*
X142059268Y-111195000D01*
X141704750Y-111265518D01*
X141370801Y-111403844D01*
X141070256Y-111604662D01*
X140814662Y-111860256D01*
X140613844Y-112160801D01*
X140475518Y-112494750D01*
X140405000Y-112849268D01*
X128835000Y-112849268D01*
X128764482Y-112494750D01*
X128626156Y-112160801D01*
X128425338Y-111860256D01*
X128169744Y-111604662D01*
X127869199Y-111403844D01*
X127535250Y-111265518D01*
X127180732Y-111195000D01*
X126819268Y-111195000D01*
X126464750Y-111265518D01*
X126130801Y-111403844D01*
X125830256Y-111604662D01*
X125574662Y-111860256D01*
X125373844Y-112160801D01*
X125235518Y-112494750D01*
X125165000Y-112849268D01*
X123925000Y-112849268D01*
X123925000Y-108320000D01*
X125461928Y-108320000D01*
X125461928Y-110120000D01*
X125474188Y-110244482D01*
X125510498Y-110364180D01*
X125569463Y-110474494D01*
X125648815Y-110571185D01*
X125745506Y-110650537D01*
X125855820Y-110709502D01*
X125975518Y-110745812D01*
X126100000Y-110758072D01*
X127900000Y-110758072D01*
X128024482Y-110745812D01*
X128144180Y-110709502D01*
X128254494Y-110650537D01*
X128351185Y-110571185D01*
X128430537Y-110474494D01*
X128489502Y-110364180D01*
X128525812Y-110244482D01*
X128538072Y-110120000D01*
X128538072Y-108320000D01*
X128525812Y-108195518D01*
X128489502Y-108075820D01*
X128430537Y-107965506D01*
X128351185Y-107868815D01*
X128254494Y-107789463D01*
X128144180Y-107730498D01*
X128125873Y-107724944D01*
X128192312Y-107658505D01*
X128360299Y-107407095D01*
X128476011Y-107127743D01*
X128535000Y-106831184D01*
X128535000Y-106528816D01*
X128476011Y-106232257D01*
X128360299Y-105952905D01*
X128244768Y-105780000D01*
X138161928Y-105780000D01*
X138161928Y-107580000D01*
X138174188Y-107704482D01*
X138210498Y-107824180D01*
X138269463Y-107934494D01*
X138348815Y-108031185D01*
X138445506Y-108110537D01*
X138555820Y-108169502D01*
X138574127Y-108175056D01*
X138507688Y-108241495D01*
X138339701Y-108492905D01*
X138223989Y-108772257D01*
X138165000Y-109068816D01*
X138165000Y-109371184D01*
X138223989Y-109667743D01*
X138339701Y-109947095D01*
X138507688Y-110198505D01*
X138721495Y-110412312D01*
X138972905Y-110580299D01*
X139252257Y-110696011D01*
X139548816Y-110755000D01*
X139851184Y-110755000D01*
X140147743Y-110696011D01*
X140427095Y-110580299D01*
X140678505Y-110412312D01*
X140892312Y-110198505D01*
X141060299Y-109947095D01*
X141176011Y-109667743D01*
X141235000Y-109371184D01*
X141235000Y-109068816D01*
X141176011Y-108772257D01*
X141060299Y-108492905D01*
X140892312Y-108241495D01*
X140825873Y-108175056D01*
X140844180Y-108169502D01*
X140954494Y-108110537D01*
X141051185Y-108031185D01*
X141130537Y-107934494D01*
X141189502Y-107824180D01*
X141225812Y-107704482D01*
X141238072Y-107580000D01*
X141238072Y-105780000D01*
X141225812Y-105655518D01*
X141189502Y-105535820D01*
X141130537Y-105425506D01*
X141056898Y-105335776D01*
X141767583Y-105335000D01*
X141926333Y-105176250D01*
X141926333Y-101977000D01*
X142180333Y-101977000D01*
X142180333Y-105176250D01*
X142339083Y-105335000D01*
X145153333Y-105338072D01*
X145277815Y-105325812D01*
X145397513Y-105289502D01*
X145507827Y-105230537D01*
X145604518Y-105151185D01*
X145683870Y-105054494D01*
X145742835Y-104944180D01*
X145779145Y-104824482D01*
X145791405Y-104700000D01*
X145788333Y-102135750D01*
X145629583Y-101977000D01*
X142180333Y-101977000D01*
X141926333Y-101977000D01*
X138477083Y-101977000D01*
X138318333Y-102135750D01*
X138315261Y-104700000D01*
X138327521Y-104824482D01*
X138363831Y-104944180D01*
X138422796Y-105054494D01*
X138502148Y-105151185D01*
X138552327Y-105192365D01*
X138445506Y-105249463D01*
X138348815Y-105328815D01*
X138269463Y-105425506D01*
X138210498Y-105535820D01*
X138174188Y-105655518D01*
X138161928Y-105780000D01*
X128244768Y-105780000D01*
X128192312Y-105701495D01*
X127978505Y-105487688D01*
X127727095Y-105319701D01*
X127447743Y-105203989D01*
X127151184Y-105145000D01*
X126848816Y-105145000D01*
X126552257Y-105203989D01*
X126272905Y-105319701D01*
X126021495Y-105487688D01*
X125807688Y-105701495D01*
X125639701Y-105952905D01*
X125523989Y-106232257D01*
X125465000Y-106528816D01*
X125465000Y-106831184D01*
X125523989Y-107127743D01*
X125639701Y-107407095D01*
X125807688Y-107658505D01*
X125874127Y-107724944D01*
X125855820Y-107730498D01*
X125745506Y-107789463D01*
X125648815Y-107868815D01*
X125569463Y-107965506D01*
X125510498Y-108075820D01*
X125474188Y-108195518D01*
X125461928Y-108320000D01*
X123925000Y-108320000D01*
X123925000Y-103138072D01*
X125109800Y-103138072D01*
X125283093Y-103121004D01*
X125449727Y-103070456D01*
X125603297Y-102988371D01*
X125737903Y-102877903D01*
X125848371Y-102743297D01*
X125930456Y-102589727D01*
X125981004Y-102423093D01*
X125998072Y-102249800D01*
X125998072Y-101525638D01*
X128965908Y-98557803D01*
X129005396Y-98525396D01*
X129051299Y-98469463D01*
X129134734Y-98367798D01*
X129230840Y-98187994D01*
X129230841Y-98187993D01*
X129290024Y-97992895D01*
X129305000Y-97840838D01*
X129305000Y-97840835D01*
X129310007Y-97790000D01*
X129305000Y-97739165D01*
X129305000Y-96244396D01*
X129384637Y-96164759D01*
X129541680Y-95929727D01*
X129649853Y-95668574D01*
X129705000Y-95391335D01*
X129705000Y-95108665D01*
X129671837Y-94941944D01*
X129863368Y-95133475D01*
X130106589Y-95295990D01*
X130376842Y-95407932D01*
X130663740Y-95465000D01*
X130956260Y-95465000D01*
X131243158Y-95407932D01*
X131513411Y-95295990D01*
X131756632Y-95133475D01*
X131963475Y-94926632D01*
X132080000Y-94752240D01*
X132196525Y-94926632D01*
X132403368Y-95133475D01*
X132646589Y-95295990D01*
X132916842Y-95407932D01*
X133203740Y-95465000D01*
X133496260Y-95465000D01*
X133783158Y-95407932D01*
X134053411Y-95295990D01*
X134296632Y-95133475D01*
X134503475Y-94926632D01*
X134620000Y-94752240D01*
X134736525Y-94926632D01*
X134943368Y-95133475D01*
X135186589Y-95295990D01*
X135456842Y-95407932D01*
X135743740Y-95465000D01*
X136036260Y-95465000D01*
X136323158Y-95407932D01*
X136593411Y-95295990D01*
X136836632Y-95133475D01*
X137043475Y-94926632D01*
X137160000Y-94752240D01*
X137276525Y-94926632D01*
X137483368Y-95133475D01*
X137726589Y-95295990D01*
X137996842Y-95407932D01*
X138064833Y-95421456D01*
X135424102Y-98062187D01*
X135384615Y-98094594D01*
X135352208Y-98134082D01*
X135352207Y-98134083D01*
X135310721Y-98184634D01*
X135067743Y-98083989D01*
X134771184Y-98025000D01*
X134468816Y-98025000D01*
X134172257Y-98083989D01*
X133892905Y-98199701D01*
X133641495Y-98367688D01*
X133427688Y-98581495D01*
X133259701Y-98832905D01*
X133143989Y-99112257D01*
X133085000Y-99408816D01*
X133085000Y-99711184D01*
X133143989Y-100007743D01*
X133259701Y-100287095D01*
X133427688Y-100538505D01*
X133641495Y-100752312D01*
X133892905Y-100920299D01*
X134172257Y-101036011D01*
X134468816Y-101095000D01*
X134771184Y-101095000D01*
X135067743Y-101036011D01*
X135085010Y-101028859D01*
X135085010Y-102211279D01*
X134694361Y-102601928D01*
X133720000Y-102601928D01*
X133595518Y-102614188D01*
X133475820Y-102650498D01*
X133365506Y-102709463D01*
X133268815Y-102788815D01*
X133189463Y-102885506D01*
X133130498Y-102995820D01*
X133094188Y-103115518D01*
X133081928Y-103240000D01*
X133081928Y-105040000D01*
X133094188Y-105164482D01*
X133130498Y-105284180D01*
X133189463Y-105394494D01*
X133268815Y-105491185D01*
X133365506Y-105570537D01*
X133475820Y-105629502D01*
X133595518Y-105665812D01*
X133720000Y-105678072D01*
X135520000Y-105678072D01*
X135644482Y-105665812D01*
X135764180Y-105629502D01*
X135874494Y-105570537D01*
X135971185Y-105491185D01*
X136050537Y-105394494D01*
X136109502Y-105284180D01*
X136145812Y-105164482D01*
X136158072Y-105040000D01*
X136158072Y-104065639D01*
X136815918Y-103407793D01*
X136855406Y-103375386D01*
X136984744Y-103217787D01*
X137080851Y-103037983D01*
X137140034Y-102842885D01*
X137155010Y-102690828D01*
X137155010Y-102690819D01*
X137160016Y-102639991D01*
X137155010Y-102589163D01*
X137155010Y-99258700D01*
X137413710Y-99000000D01*
X138315261Y-99000000D01*
X138318333Y-101564250D01*
X138477083Y-101723000D01*
X141926333Y-101723000D01*
X141926333Y-98523750D01*
X142180333Y-98523750D01*
X142180333Y-101723000D01*
X145629583Y-101723000D01*
X145788333Y-101564250D01*
X145791405Y-99000000D01*
X145779145Y-98875518D01*
X145742835Y-98755820D01*
X145683870Y-98645506D01*
X145604518Y-98548815D01*
X145507827Y-98469463D01*
X145397513Y-98410498D01*
X145277815Y-98374188D01*
X145153333Y-98361928D01*
X142339083Y-98365000D01*
X142180333Y-98523750D01*
X141926333Y-98523750D01*
X141767583Y-98365000D01*
X138953333Y-98361928D01*
X138828851Y-98374188D01*
X138709153Y-98410498D01*
X138598839Y-98469463D01*
X138502148Y-98548815D01*
X138422796Y-98645506D01*
X138363831Y-98755820D01*
X138327521Y-98875518D01*
X138315261Y-99000000D01*
X137413710Y-99000000D01*
X140948711Y-95465000D01*
X141116260Y-95465000D01*
X141403158Y-95407932D01*
X141673411Y-95295990D01*
X141916632Y-95133475D01*
X142123475Y-94926632D01*
X142240000Y-94752240D01*
X142356525Y-94926632D01*
X142563368Y-95133475D01*
X142806589Y-95295990D01*
X143076842Y-95407932D01*
X143363740Y-95465000D01*
X143656260Y-95465000D01*
X143943158Y-95407932D01*
X144213411Y-95295990D01*
X144456632Y-95133475D01*
X144663475Y-94926632D01*
X144785195Y-94744466D01*
X144854822Y-94861355D01*
X145049731Y-95077588D01*
X145283080Y-95251641D01*
X145545901Y-95376825D01*
X145693110Y-95421476D01*
X145923000Y-95300155D01*
X145923000Y-94107000D01*
X145903000Y-94107000D01*
X145903000Y-93853000D01*
X145923000Y-93853000D01*
X145923000Y-93833000D01*
X146177000Y-93833000D01*
X146177000Y-93853000D01*
X146197000Y-93853000D01*
X146197000Y-94107000D01*
X146177000Y-94107000D01*
X146177000Y-95300155D01*
X146406890Y-95421476D01*
X146554099Y-95376825D01*
X146816920Y-95251641D01*
X147050269Y-95077588D01*
X147126034Y-94993534D01*
X147150498Y-95074180D01*
X147209463Y-95184494D01*
X147288815Y-95281185D01*
X147385506Y-95360537D01*
X147495820Y-95419502D01*
X147615518Y-95455812D01*
X147740000Y-95468072D01*
X149440000Y-95468072D01*
X149564482Y-95455812D01*
X149684180Y-95419502D01*
X149794494Y-95360537D01*
X149891185Y-95281185D01*
X149970537Y-95184494D01*
X150029502Y-95074180D01*
X150065812Y-94954482D01*
X150078072Y-94830000D01*
X150078072Y-93130000D01*
X150065812Y-93005518D01*
X150029502Y-92885820D01*
X150007683Y-92845001D01*
X152455001Y-92845001D01*
X152455000Y-113855392D01*
G37*
%TD.AperFunction*%
D22*
X129656525Y-93033368D02*
X129494010Y-93276589D01*
X129382068Y-93546842D01*
X129325000Y-93833740D01*
X129325000Y-94126260D01*
X129362083Y-94312687D01*
X129184759Y-94135363D01*
X128949727Y-93978320D01*
X128688574Y-93870147D01*
X128411335Y-93815000D01*
X128128665Y-93815000D01*
X127851426Y-93870147D01*
X127590273Y-93978320D01*
X127355241Y-94135363D01*
X127155363Y-94335241D01*
X126998320Y-94570273D01*
X126890147Y-94831426D01*
X126835000Y-95108665D01*
X126835000Y-95391335D01*
X126890147Y-95668574D01*
X126998320Y-95929727D01*
X127155363Y-96164759D01*
X127235000Y-96244396D01*
X127235001Y-97361288D01*
X125943792Y-98652498D01*
X125858222Y-98408801D01*
X125778261Y-98259208D01*
X125524080Y-98175525D01*
X124639605Y-99060000D01*
X124653748Y-99074143D01*
X124474143Y-99253748D01*
X124460000Y-99239605D01*
X124445858Y-99253748D01*
X124266253Y-99074143D01*
X124280395Y-99060000D01*
X124266253Y-99045858D01*
X124445858Y-98866253D01*
X124460000Y-98880395D01*
X125344475Y-97995920D01*
X125284895Y-97814951D01*
X125438505Y-97712312D01*
X125652312Y-97498505D01*
X125820299Y-97247095D01*
X125936011Y-96967743D01*
X125995000Y-96671184D01*
X125995000Y-96368816D01*
X125936011Y-96072257D01*
X125820299Y-95792905D01*
X125652312Y-95541495D01*
X125438505Y-95327688D01*
X125187095Y-95159701D01*
X124907743Y-95043989D01*
X124611184Y-94985000D01*
X124308816Y-94985000D01*
X124012257Y-95043989D01*
X123925000Y-95080132D01*
X123925000Y-92845001D01*
X129844892Y-92845001D01*
X129656525Y-93033368D01*
%TA.AperFunction,Conductor*%
D23*
G36*
X129656525Y-93033368D02*
G01*
X129494010Y-93276589D01*
X129382068Y-93546842D01*
X129325000Y-93833740D01*
X129325000Y-94126260D01*
X129362083Y-94312687D01*
X129184759Y-94135363D01*
X128949727Y-93978320D01*
X128688574Y-93870147D01*
X128411335Y-93815000D01*
X128128665Y-93815000D01*
X127851426Y-93870147D01*
X127590273Y-93978320D01*
X127355241Y-94135363D01*
X127155363Y-94335241D01*
X126998320Y-94570273D01*
X126890147Y-94831426D01*
X126835000Y-95108665D01*
X126835000Y-95391335D01*
X126890147Y-95668574D01*
X126998320Y-95929727D01*
X127155363Y-96164759D01*
X127235000Y-96244396D01*
X127235001Y-97361288D01*
X125943792Y-98652498D01*
X125858222Y-98408801D01*
X125778261Y-98259208D01*
X125524080Y-98175525D01*
X124639605Y-99060000D01*
X124653748Y-99074143D01*
X124474143Y-99253748D01*
X124460000Y-99239605D01*
X124445858Y-99253748D01*
X124266253Y-99074143D01*
X124280395Y-99060000D01*
X124266253Y-99045858D01*
X124445858Y-98866253D01*
X124460000Y-98880395D01*
X125344475Y-97995920D01*
X125284895Y-97814951D01*
X125438505Y-97712312D01*
X125652312Y-97498505D01*
X125820299Y-97247095D01*
X125936011Y-96967743D01*
X125995000Y-96671184D01*
X125995000Y-96368816D01*
X125936011Y-96072257D01*
X125820299Y-95792905D01*
X125652312Y-95541495D01*
X125438505Y-95327688D01*
X125187095Y-95159701D01*
X124907743Y-95043989D01*
X124611184Y-94985000D01*
X124308816Y-94985000D01*
X124012257Y-95043989D01*
X123925000Y-95080132D01*
X123925000Y-92845001D01*
X129844892Y-92845001D01*
X129656525Y-93033368D01*
G37*
%TD.AperFunction*%
%TD*%
M02*
