%TF.GenerationSoftware,KiCad,Pcbnew,(5.1.7)-1*%
%TF.CreationDate,2020-12-03T17:13:14+01:00*%
%TF.ProjectId,RcOid,52634f69-642e-46b6-9963-61645f706362,1*%
%TF.SameCoordinates,Original*%
%TF.FileFunction,Soldermask,Bot*%
%TF.FilePolarity,Negative*%
%FSLAX46Y46*%
G04 Gerber Fmt 4.6, Leading zero omitted, Abs format (unit mm)*
G04 Created by KiCad (PCBNEW (5.1.7)-1) date 2020-12-03 17:13:14*
%MOMM*%
%LPD*%
G01*
G04 APERTURE LIST*
%ADD10O,1.800000X1.800000*%
%ADD11R,1.800000X1.800000*%
%ADD12R,6.200000X5.700000*%
%ADD13C,1.800000*%
%ADD14R,1.600000X1.600000*%
%ADD15C,1.600000*%
%ADD16R,1.700000X1.700000*%
%ADD17O,1.700000X1.700000*%
%ADD18C,2.400000*%
%ADD19O,2.400000X2.400000*%
G04 APERTURE END LIST*
D10*
%TO.C,Q1*%
X134620000Y-99560000D03*
D11*
X134620000Y-104140000D03*
D12*
X142053333Y-101850000D03*
%TD*%
D13*
%TO.C,D2*%
X139700000Y-109220000D03*
D11*
X139700000Y-106680000D03*
%TD*%
D13*
%TO.C,D1*%
X127000000Y-106680000D03*
D11*
X127000000Y-109220000D03*
%TD*%
D14*
%TO.C,C1*%
X148590000Y-114300000D03*
D15*
X151090000Y-114300000D03*
%TD*%
D16*
%TO.C,J1*%
X148590000Y-93980000D03*
D17*
X146050000Y-93980000D03*
X143510000Y-93980000D03*
X140970000Y-93980000D03*
X138430000Y-93980000D03*
X135890000Y-93980000D03*
X133350000Y-93980000D03*
X130810000Y-93980000D03*
%TD*%
%TO.C,J2*%
X130810000Y-116840000D03*
X133350000Y-116840000D03*
X135890000Y-116840000D03*
X138430000Y-116840000D03*
X140970000Y-116840000D03*
X143510000Y-116840000D03*
X146050000Y-116840000D03*
D16*
X148590000Y-116840000D03*
%TD*%
D18*
%TO.C,R1*%
X142240000Y-113030000D03*
D19*
X127000000Y-113030000D03*
%TD*%
%TO.C,U1*%
G36*
G01*
X125109800Y-102500000D02*
X123810200Y-102500000D01*
G75*
G02*
X123560000Y-102249800I0J250200D01*
G01*
X123560000Y-100950200D01*
G75*
G02*
X123810200Y-100700000I250200J0D01*
G01*
X125109800Y-100700000D01*
G75*
G02*
X125360000Y-100950200I0J-250200D01*
G01*
X125360000Y-102249800D01*
G75*
G02*
X125109800Y-102500000I-250200J0D01*
G01*
G37*
D13*
X124460000Y-99060000D03*
X124460000Y-96520000D03*
%TD*%
M02*
