%TF.GenerationSoftware,KiCad,Pcbnew,(5.1.7)-1*%
%TF.CreationDate,2020-12-07T09:32:12+01:00*%
%TF.ProjectId,RcOid,52634f69-642e-46b6-9963-61645f706362,1*%
%TF.SameCoordinates,Original*%
%TF.FileFunction,Legend,Top*%
%TF.FilePolarity,Positive*%
%FSLAX46Y46*%
G04 Gerber Fmt 4.6, Leading zero omitted, Abs format (unit mm)*
G04 Created by KiCad (PCBNEW (5.1.7)-1) date 2020-12-07 09:32:12*
%MOMM*%
%LPD*%
G01*
G04 APERTURE LIST*
%ADD10C,0.120000*%
%ADD11C,0.150000*%
G04 APERTURE END LIST*
D10*
%TO.C,JP1*%
X143780000Y-109350000D02*
X143780000Y-106550000D01*
X143780000Y-106550000D02*
X145780000Y-106550000D01*
X145780000Y-106550000D02*
X145780000Y-109350000D01*
X145780000Y-109350000D02*
X143780000Y-109350000D01*
%TO.C,D2*%
X142200000Y-107950000D02*
G75*
G03*
X142200000Y-107950000I-2500000J0D01*
G01*
X141245000Y-105390000D02*
X138155000Y-105390000D01*
X139700462Y-110940000D02*
G75*
G02*
X138155170Y-105390000I-462J2990000D01*
G01*
X139699538Y-110940000D02*
G75*
G03*
X141244830Y-105390000I462J2990000D01*
G01*
%TO.C,JP1*%
D11*
X142432380Y-108783333D02*
X143146666Y-108783333D01*
X143289523Y-108830952D01*
X143384761Y-108926190D01*
X143432380Y-109069047D01*
X143432380Y-109164285D01*
X143432380Y-108307142D02*
X142432380Y-108307142D01*
X142432380Y-107926190D01*
X142480000Y-107830952D01*
X142527619Y-107783333D01*
X142622857Y-107735714D01*
X142765714Y-107735714D01*
X142860952Y-107783333D01*
X142908571Y-107830952D01*
X142956190Y-107926190D01*
X142956190Y-108307142D01*
X143432380Y-106783333D02*
X143432380Y-107354761D01*
X143432380Y-107069047D02*
X142432380Y-107069047D01*
X142575238Y-107164285D01*
X142670476Y-107259523D01*
X142718095Y-107354761D01*
%TO.C,D2*%
X144112380Y-108688095D02*
X143112380Y-108688095D01*
X143112380Y-108450000D01*
X143160000Y-108307142D01*
X143255238Y-108211904D01*
X143350476Y-108164285D01*
X143540952Y-108116666D01*
X143683809Y-108116666D01*
X143874285Y-108164285D01*
X143969523Y-108211904D01*
X144064761Y-108307142D01*
X144112380Y-108450000D01*
X144112380Y-108688095D01*
X143207619Y-107735714D02*
X143160000Y-107688095D01*
X143112380Y-107592857D01*
X143112380Y-107354761D01*
X143160000Y-107259523D01*
X143207619Y-107211904D01*
X143302857Y-107164285D01*
X143398095Y-107164285D01*
X143540952Y-107211904D01*
X144112380Y-107783333D01*
X144112380Y-107164285D01*
%TD*%
M02*
