M48
; DRILL file {KiCad (5.1.7)-1} date 12/07/20 09:32:18
; FORMAT={-:-/ absolute / metric / decimal}
; #@! TF.CreationDate,2020-12-07T09:32:18+01:00
; #@! TF.GenerationSoftware,Kicad,Pcbnew,(5.1.7)-1
; #@! TF.FileFunction,Plated,1,2,PTH
FMAT,2
METRIC
T1C0.800
T2C0.900
T3C1.000
T4C1.100
T5C1.200
%
G90
G05
T1
X128.27Y-95.25
X128.27Y-102.87
X148.59Y-114.3
X151.09Y-114.3
T2
X139.7Y-106.68
X139.7Y-109.22
X127.0Y-106.68
X127.0Y-109.22
X124.46Y-96.52
X124.46Y-99.06
X124.46Y-101.6
T3
X130.81Y-93.98
X133.35Y-93.98
X135.89Y-93.98
X138.43Y-93.98
X140.97Y-93.98
X143.51Y-93.98
X146.05Y-93.98
X148.59Y-93.98
X130.81Y-116.84
X133.35Y-116.84
X135.89Y-116.84
X138.43Y-116.84
X140.97Y-116.84
X143.51Y-116.84
X146.05Y-116.84
X148.59Y-116.84
T4
X134.62Y-99.56
X134.62Y-101.85
X134.62Y-104.14
T5
X127.0Y-113.03
X142.24Y-113.03
T0
M30
